<svg id="Capa_1" enable-background="new 0 0 497 497" height="512" viewBox="0 0 497 497" width="512" xmlns="http://www.w3.org/2000/svg"><g><path d="m34.674 80.392c-46.232 46.233-46.232 121.191 0 167.423l196.148 196.148c.228.228.459.451.693.668 9.805 9.09 25.127-1.133 34.662-10.668l186.148-186.148c46.233-46.232 54.233-118.19 8-164.423v-1c-23.948-23.948-53.604-37.491-84.983-36.629-29.198.802-58.156 12.345-80.44 34.629l-46.402 46.403-46.403-46.403c-46.233-46.232-121.19-46.232-167.423 0z" fill="#fd8087"/><g><path d="m462.325 80.392c-23.948-23.948-55.604-35.487-86.983-34.625 20.882 4.818 40.712 15.354 56.983 31.625 46.233 46.233 46.233 121.191 0 167.423l-196.148 196.148c-1.434 1.434-3.001 2.651-4.658 3.663 9.805 9.089 25.123 8.871 34.658-.663l196.148-196.148c46.233-46.232 46.233-121.19 0-167.423z" fill="#fd4755"/></g><path d="m294.523 267.071c-3.19-1.217-5.781-3.617-7.299-6.675-7.398-14.901-20.763-25.146-38.528-25.146-5.041 0-9.888-1.175-14.415.347-11.428 3.842-20.814 12.126-26.113 22.799-1.518 3.058-4.109 5.458-7.299 6.675-17.356 6.619-29.589 23.612-29.106 43.403.572 23.402 19.318 42.76 42.693 44.032 8.627.47 16.76-1.482 23.788-5.235 6.512-3.477 14.392-3.477 20.904 0 4.774 2.549 10.058 4.267 15.661 4.96 2.644.327 5.359-.575 8.124-.725 23.375-1.271 40.122-19.628 40.695-43.03.485-19.791-11.749-34.786-29.105-41.405z" fill="#ffe187"/><path d="m165.74 248.282c-9.706 2.601-19.682-3.159-22.283-12.865l-5.808-21.675c-2.601-9.706 3.159-19.682 12.865-22.283s19.682 3.159 22.283 12.865l5.808 21.675c2.601 9.706-3.158 19.682-12.865 22.283z" fill="#ffe187"/><path d="m331.651 248.282c9.706 2.601 19.682-3.159 22.283-12.865l5.808-21.675c2.601-9.706-3.159-19.682-12.865-22.283s-19.682 3.159-22.283 12.865l-5.808 21.675c-2.601 9.706 3.159 19.682 12.865 22.283z" fill="#ffc344"/><g><path d="m213.25 203.256c-10.048 0-18.194-8.145-18.194-18.194v-22.44c0-10.048 8.146-18.194 18.194-18.194s18.194 8.145 18.194 18.194v22.44c0 10.048-8.146 18.194-18.194 18.194z" fill="#ffe187"/></g><g><path d="m284.142 203.256c-10.048 0-18.194-8.145-18.194-18.194v-22.44c0-10.048 8.146-18.194 18.194-18.194s18.194 8.145 18.194 18.194v22.44c0 10.048-8.146 18.194-18.194 18.194z" fill="#ffc344"/></g><g><path d="m296.523 265.071c-3.19-1.216-5.781-3.617-7.299-6.675-7.398-14.901-22.763-25.146-40.528-25.146-5.041 0-9.888.827-14.415 2.349 15.36 1.893 28.333 11.483 34.943 24.797 1.518 3.058 4.109 5.458 7.299 6.675 17.357 6.619 29.59 23.614 29.105 43.405-.472 19.266-13.266 35.781-30.816 41.729 2.645.327 5.354.452 8.121.301 23.375-1.271 42.122-20.628 42.695-44.03.485-19.791-11.749-36.786-29.105-43.405z" fill="#ffc344"/></g></g></svg>