<?xml version="1.0"?>
<svg xmlns="http://www.w3.org/2000/svg" xmlns:xlink="http://www.w3.org/1999/xlink" xmlns:svgjs="http://svgjs.com/svgjs" version="1.1" width="512" height="512" x="0" y="0" viewBox="0 0 512.13892 512" style="enable-background:new 0 0 512 512" xml:space="preserve" class=""><g><path xmlns="http://www.w3.org/2000/svg" d="m13.792969 173.074219c-15.625 13.21875-18.351563 36.269531-6.246094 52.769531l135.679687 192.582031c1.320313 1.875 32.9375 46.078125 80.757813 52.488281 3.007813.425782 5.699219 2.078126 7.441406 4.566407l17.390625 24.640625c4.296875 6.113281 10.851563 10.269531 18.210938 11.550781 7.363281 1.28125 14.933594-.417969 21.042968-4.722656l128.359376-90.453125c6.113281-4.296875 10.265624-10.847656 11.546874-18.210938 1.28125-7.363281-.417968-14.933594-4.722656-21.042968l-2.0625-2.933594c-7.855468-11.054688-10.859375-24.832032-8.320312-38.152344 5.539062-29.492188 10.445312-71.734375 2.414062-105.5-5.121094-21.453125-11.246094-39.917969-17.203125-57.777344-8.71875-22.964844-14.734375-46.863281-17.917969-71.21875-2-20.609375-12.726562-38.800781-26.746093-45.269531-8.222657-4.027344-18.003907-3.171875-25.402344 2.226563-17.664063 12.449218-16.53125 43.332031-15.308594 76.03125.171875 4.703124.359375 9.457031.476563 14.191406.164062 6.398437.949218 12.910156 1.785156 19.824218.808594 6.765626 1.636719 13.652344 1.96875 20.886719-1.09375 2.941407-3.453125 5.234375-6.425781 6.238281-3.515625 1.230469-7.410157.640626-10.410157-1.570312-9.210937-7.207031-17.238281-15.8125-23.789062-25.503906l-.042969-.09375-107.382812-152.421875c-8.046875-11.425781-21.714844-17.511719-35.585938-15.84375-13.871093 1.671875-25.707031 10.824219-30.8125 23.828125l-4.351562-6.167969c-12.078125-17.144531-35.769531-21.253906-52.917969-9.175781-17.144531 12.082031-21.25 35.773437-9.171875 52.917968l4.359375 6.1875c-13.957031.429688-26.554688 8.488282-32.792969 20.984376-6.238281 12.496093-5.113281 27.40625 2.929688 38.824218l26.015625 37.007813c-8.292969.214843-16.289063 3.132812-22.765625 8.3125zm98.457031 99.113281c1.742188 2.535156 4.710938 3.9375 7.773438 3.671875s5.746093-2.160156 7.023437-4.957031.949219-6.0625-.855469-8.550782l-101.722656-144.417968c-5.300781-7.460938-5.09375-17.511719.511719-24.75 1.285156-1.675782 2.8125-3.152344 4.539062-4.375 9.441407-6.621094 22.453125-4.371094 29.125 5.035156l96.09375 136.414062c2.714844 3.851563 8.042969 4.773438 11.894531 2.054688 3.851563-2.714844 4.773438-8.042969 2.054688-11.894531l-118.6875-168.5c-6.589844-9.457031-4.332031-22.453125 5.058594-29.132813 4.53125-3.207031 10.152344-4.476562 15.617187-3.523437 5.46875.949219 10.332031 4.039062 13.515625 8.582031l118.691406 168.492188c.753907 1.035156 1.734376 1.886718 2.867188 2.484374.34375.15625.695312.292969 1.058594.410157.785156.316406 1.613281.511719 2.457031.578125.203125 0 .390625.144531.597656.144531.402344-.035156.800781-.09375 1.195313-.179687.285156-.027344.570312-.074219.851562-.136719 2.742188-.640625 4.980469-2.613281 5.964844-5.253907.984375-2.640624.578125-5.597656-1.074219-7.878906l-96.050781-136.402344c-6.648438-9.441406-4.382812-22.488281 5.058594-29.132812 9.441406-6.648438 22.484375-4.382812 29.132812 5.058594l107.351563 152.390625v.074219c7.617187 11.25 16.976562 21.21875 27.722656 29.535156 4.890625 3.550781 10.777344 5.46875 16.820313 5.476562 3.097656-.003906 6.171874-.515625 9.105468-1.519531v.222656c-2.140625 7.140625-4.984375 14.050781-8.484375 20.632813-8.617187 16.128906-10.910156 34.890625-6.425781 52.617187.640625 3.0625 2.902344 5.53125 5.898438 6.429688 2.996093.898437 6.242187.089843 8.464843-2.113281 2.222657-2.203126 3.058594-5.441407 2.183594-8.445313-3.449219-13.613281-1.699219-28.023437 4.90625-40.414063 4.464844-8.328124 7.941406-17.152343 10.351563-26.289062 1.898437-15.960938 1.585937-32.105469-.929688-47.976562-.785156-6.492188-1.527344-12.636719-1.707031-18.226563-.128907-4.796875-.316407-9.609375-.484375-14.386719-.949219-25.457031-2.023438-54.324218 8.078125-61.441406 2.433593-1.863281 5.730469-2.128906 8.433593-.683594 10.324219 7.140625 16.582032 18.816406 16.808594 31.371094 3.335938 25.648438 9.632813 50.820312 18.773438 75.015625 5.847656 17.511719 11.878906 35.601563 16.804687 56.320313 7.679688 32.46875 1.703125 75.585937-2.5625 98.398437-3.3125 17.84375.683594 36.269531 11.09375 51.140625l2.066407 2.933594c3.523437 5.007812 2.324218 11.925781-2.679688 15.453125l-128.367188 90.453125c-5.019531 3.507812-11.929687 2.308594-15.472656-2.6875l-17.296875-24.660156c-4.480469-6.367188-11.402343-10.589844-19.113281-11.65625-40.347656-5.410157-68.8125-45.003907-69.121094-45.398438l-135.628906-192.578125c-6.773438-9.183594-5.476562-22.003906 2.996094-29.644531 4.507812-3.625 10.316406-5.222656 16.042968-4.414063 5.730469.808594 10.867188 3.949219 14.199219 8.679688zm0 0" fill="#80cbc4" data-original="#000000" style="" class=""/><path xmlns="http://www.w3.org/2000/svg" d="m164.03125 379.804688c2.714844 3.851562 8.039062 4.773437 11.890625 2.058593 3.851563-2.714843 4.773437-8.039062 2.058594-11.890625l-33.917969-48.195312c-2.714844-3.855469-8.039062-4.777344-11.890625-2.0625-3.855469 2.714844-4.777344 8.039062-2.0625 11.890625zm0 0" fill="#80cbc4" data-original="#000000" style="" class=""/><path xmlns="http://www.w3.org/2000/svg" d="m211.484375 425.753906c3.003906.519532 6.058594-.601562 8.011719-2.945312 1.949218-2.339844 2.503906-5.546875 1.453125-8.40625-1.050781-2.863282-3.550781-4.945313-6.554688-5.464844-5.3125-.628906-10.234375-3.113281-13.894531-7.015625-2.746094-3.828125-8.078125-4.707031-11.90625-1.960937-3.828125 2.75-4.707031 8.082031-1.957031 11.910156 6.203125 7.632812 15.09375 12.601562 24.847656 13.882812zm0 0" fill="#80cbc4" data-original="#000000" style="" class=""/><path xmlns="http://www.w3.org/2000/svg" d="m364.835938 402.910156c1.757812-.003906 3.472656-.546875 4.90625-1.5625l8.03125-5.648437c2.492187-1.757813 3.851562-4.710938 3.574218-7.75-.277344-3.035157-2.152344-5.691407-4.921875-6.96875-2.769531-1.277344-6.007812-.984375-8.5.777343l-8.03125 5.648438c-3.035156 2.144531-4.335937 6.007812-3.210937 9.550781 1.121094 3.542969 4.410156 5.953125 8.128906 5.953125zm0 0" fill="#80cbc4" data-original="#000000" style="" class=""/><path xmlns="http://www.w3.org/2000/svg" d="m276.617188 465.085938c1.757812 0 3.472656-.542969 4.910156-1.554688l56.164062-39.570312c2.492188-1.761719 3.855469-4.722657 3.574219-7.761719-.28125-3.039063-2.164063-5.699219-4.9375-6.976563s-6.015625-.976562-8.507813.789063l-56.167968 39.566406c-3.039063 2.148437-4.339844 6.015625-3.210938 9.558594 1.128906 3.546875 4.421875 5.953125 8.144532 5.949219zm0 0" fill="#80cbc4" data-original="#000000" style="" class=""/><path xmlns="http://www.w3.org/2000/svg" d="m119.605469 512.070312c4.714843 0 8.535156-3.820312 8.535156-8.535156 0-4.710937-3.820313-8.53125-8.535156-8.53125-56.527344-.0625-102.339844-45.871094-102.398438-102.402344 0-4.710937-3.820312-8.53125-8.535156-8.53125-4.710937 0-8.53125 3.820313-8.53125 8.53125.070313 65.953126 53.515625 119.398438 119.464844 119.46875zm0 0" fill="#80cbc4" data-original="#000000" style="" class=""/><path xmlns="http://www.w3.org/2000/svg" d="m51.339844 384.070312c0-4.714843-3.820313-8.535156-8.535156-8.535156-4.710938 0-8.53125 3.820313-8.53125 8.535156.058593 51.816407 42.050781 93.804688 93.867187 93.867188 4.710937 0 8.53125-3.820312 8.53125-8.535156 0-4.710938-3.820313-8.53125-8.53125-8.53125-42.398437-.046875-76.753906-34.40625-76.800781-76.800782zm0 0" fill="#80cbc4" data-original="#000000" style="" class=""/><path xmlns="http://www.w3.org/2000/svg" d="m392.671875.0703125c-4.710937 0-8.53125 3.8203125-8.53125 8.5312495 0 4.714844 3.820313 8.535157 8.53125 8.535157 56.527344.0625 102.339844 45.871093 102.398437 102.398437 0 4.714844 3.824219 8.535156 8.535157 8.535156 4.714843 0 8.535156-3.820312 8.535156-8.535156-.074219-65.949218-53.519531-119.394531-119.46875-119.4648435zm0 0" fill="#80cbc4" data-original="#000000" style="" class=""/><path xmlns="http://www.w3.org/2000/svg" d="m384.140625 51.269531c42.394531.046875 76.75 34.402344 76.796875 76.800781 0 4.710938 3.820312 8.53125 8.535156 8.53125 4.710938 0 8.53125-3.820312 8.53125-8.53125-.058594-51.816406-42.050781-93.804687-93.863281-93.867187-4.714844 0-8.535156 3.820313-8.535156 8.53125 0 4.714844 3.820312 8.535156 8.535156 8.535156zm0 0" fill="#80cbc4" data-original="#000000" style="" class=""/></g></svg>
